<svg version="1.2" baseProfile="tiny-ps" xmlns="http://www.w3.org/2000/svg" viewBox="0 0 1080 1080" width="300" height="300"><title>template</title><style>tspan { white-space:pre }.shp0 { fill: #00ff00 } .shp1 { fill: #0000ff } .shp2 { fill: #ff0000 } .shp3 { fill: #000000 } .shp4 { fill: #ffff00;stroke: #000000;stroke-width: 4 } </style><path class="shp0" d="M361.75 635.5L443.78 406.81L530.88 633.61L361.75 635.5Z" /><path class="shp1" d="M527 695.83L656.5 471L787.04 694.23L527 695.83Z" /><path class="shp2" d="M658.62 588.06L721.61 689.82L601.94 689.97L658.62 588.06Z" /><path class="shp3" d="M329 690L858 690L858 699L329 699L329 690Z" /><path class="shp3" d="M440 511L448 511L448 699L440 699L440 511Z" /><path class="shp3" d="M399.85 576.48L403.02 573.29L446.32 616.45L443.14 619.63L399.85 576.48Z" /><path class="shp3" d="M447.24 598.66L444.14 595.4L488.43 553.26L491.53 556.52L447.24 598.66Z" /><path class="shp3" d="M409.52 535.88L412.21 533.42L447.56 568.06L444.86 570.52L409.52 535.88Z" /><path class="shp3" d="M473.11 511.04L475.49 513.45L445.11 547.78L442.73 545.37L473.11 511.04Z" /><path class="shp3" d="M655.29 586L661.22 589.38L601.93 696.44L596 693.06L655.29 586Z" /><path class="shp3" d="M725.88 691.19L720.03 694.92L655 588.73L660.85 585L725.88 691.19Z" /><path class="shp3" d="M655 473L661 473L661 592L655 592L655 473Z" /><path class="shp3" d="M676.25 430.7L681.83 433.63L528.49 699.99L522.91 697.06L676.25 430.7Z" /><path class="shp3" d="M789.26 691.52L783.89 694.42L635 433.48L640.37 430.57L789.26 691.52Z" /><path class="shp3" d="M360 633L530 633L530 639L360 639L360 633Z" /><path class="shp3" d="M441.54 406.01L446.22 408.32L365.68 637.24L361 634.93L441.54 406.01Z" /><path class="shp3" d="M442 408.4L446.7 406L531 634.81L526.3 637.21L442 408.4Z" /><path class="shp4" d="M784.5 376.15L787.5 376.15C816.53 376.15 840 399.62 840 428.65L840 428.65C840 457.68 816.53 481.15 787.5 481.15L784.5 481.15C755.47 481.15 732 457.68 732 428.65L732 428.65C732 399.62 755.47 376.15 784.5 376.15ZM687 425.15L723 425.15L723 430.15L687 430.15L687 425.15ZM848 422.15L884 422.15L884 427.15L848 427.15L848 422.15ZM791.57 334.05L791.18 370.05L786.18 370L786.57 334L791.57 334.05ZM791.97 488.33L791.28 524.32L786.28 524.22L786.97 488.23L791.97 488.33ZM791.97 488.33L791.28 524.32L786.28 524.22L786.97 488.23L791.97 488.33ZM791.97 488.33L791.28 524.32L786.28 524.22L786.97 488.23L791.97 488.33ZM791.97 488.33L791.28 524.32L786.28 524.22L786.97 488.23L791.97 488.33ZM833.39 467.74L859.32 492.71L855.86 496.31L829.93 471.34L833.39 467.74ZM742.05 472.47L715.29 496.55L711.95 492.84L738.71 468.75L742.05 472.47ZM861.05 363.47L834.29 387.55L830.95 383.84L857.71 359.75L861.05 363.47ZM737.4 384.69L712.58 358.61L716.2 355.16L741.02 381.24L737.4 384.69Z" /><text style="transform: matrix(1,0,0,1,470.5,754)" ></text><text style="transform: matrix(1,0,0,1,374,731)" ></text></svg>